<?xml version="1.0" standalone="no"?><!DOCTYPE svg PUBLIC "-//W3C//DTD SVG 1.1//EN" "http://www.w3.org/Graphics/SVG/1.1/DTD/svg11.dtd" [<!ENTITY nbsp " ">]><svg data-noselect="" viewBox="102.42496545410003 52.00296020508 610.5937031249999 504.157127009372" width="610.5937031249999" ref="svg_canvas" height="504.157127009372" preserveAspectRatio="none" version="1.1" xmlns="http://www.w3.org/2000/svg" style="background: #ffffff;"><g id="shape_dHcrofPhfj" ref="shape_dHcrofPhfj" key="shape_dHcrofPhfj" transform="translate(297.72180175781,132.00296020508) rotate(0,105,105) scale(1,1)" style="cursor:move;display:inline;opacity:1;" filter="">
            <g style="display:inline"><rect fill="rgba(0,0,0,0)" width="230" height="230" x="-10" y="-10"></rect><svg version="1.1" xmlns="http://www.w3.org/2000/svg" xmlns:xlink="http://www.w3.org/1999/xlink" x="0px" y="0px" shapetype="round rect" width="210" height="210" viewBox="0 0 100 100" enable-background="new 0 0 100 100" xml:space="preserve" preserveAspectRatio="none" data-parent="shape_dHcrofPhfj">
	 <linearGradient class="" x1="0%" y1="0%" x2="0%" y2="100%" gradientTransform="translate(0.5,0.5) rotate(0) translate(-0.5,-0.5)">
		<stop id="stop1_ow3cwzdvpZ" offset="0%" class="" stop-color="#05a"></stop>
		<stop id="stop2_ihF6qOUXOs" offset="100%" class="" stop-color="#0a5"></stop>
	</linearGradient>

	<radialGradient class="" cx="50%" cy="50%" r="50%" fx="50%" fy="50%">
		<stop offset="0%" class="" stop-color="#05a"></stop>
		<stop offset="100%" class="" stop-color="#0a5"></stop>
	</radialGradient>
	<clipPath id="f_round_rect_cmuU99ijP7" class="">
		<rect fill="none" class="" stroke="#dddddd" stroke-width="1" stroke-miterlimit="10" x="0" y="0" width="100" height="100" rx="20" ry="20"></rect>
	</clipPath>
	<rect class="" fill="#333333" opacity="1" x="1" y="1" width="98" height="98" rx="20" ry="20"></rect>
	<rect class="" fill="none" stroke="#dddddd" stroke-width="0" stroke-miterlimit="10" x="0" y="0" width="100" height="100" rx="20" ry="20" clip-path="url(#f_round_rect_cmuU99ijP7)"></rect>
</svg></g>
        </g><g id="shape_QexPmFK7RW" ref="shape_QexPmFK7RW" key="shape_QexPmFK7RW" transform="translate(306.72180175781,141.00296020508) rotate(0,96,96) scale(1,1)" style="cursor:move;display:inline;opacity:1;" filter="">
            <g style="display:inline"><rect fill="rgba(0,0,0,0)" width="212" height="212" x="-10" y="-10"></rect><svg version="1.1" id="图层_1" xmlns="http://www.w3.org/2000/svg" xmlns:xlink="http://www.w3.org/1999/xlink" x="0px" y="0px" width="192" height="192" viewBox="0 0 100 100" enable-background="new 0 0 100 100" xml:space="preserve" shapetype="ellipse" preserveAspectRatio="none" data-parent="shape_QexPmFK7RW">
	 <linearGradient class="" x1="0%" y1="0%" x2="0%" y2="100%" gradientTransform="translate(0.5,0.5) rotate(0) translate(-0.5,-0.5)">
		<stop id="stop1_cONCJCNxbz" offset="0%" class="" stop-color="#05a"></stop>
		<stop id="stop2_s3TpZ9jAS3" offset="100%" class="" stop-color="#0a5"></stop>
	</linearGradient>

	<radialGradient class="" cx="50%" cy="50%" r="50%" fx="50%" fy="50%">
		<stop offset="0%" class="" stop-color="#05a"></stop>
		<stop offset="100%" class="" stop-color="#0a5"></stop>
	</radialGradient>
	<clipPath id="f_ellipse_JtdixbNGFD" class="">
		<ellipse fill="none" class="" stroke="#dddddd" stroke-width="1" stroke-miterlimit="10" cx="50" cy="50" rx="50" ry="50"></ellipse>
	</clipPath>
	<ellipse class="" fill="#FFFFFF" opacity="1" cx="50" cy="50" rx="49" ry="49"></ellipse>
	<ellipse class="" fill="none" stroke="#dddddd" stroke-width="0" stroke-miterlimit="10" cx="50" cy="50" rx="50" ry="50" clip-path="url(#f_ellipse_JtdixbNGFD)"></ellipse>
</svg></g>
        </g><g id="shape_J97dQbKHnK" ref="shape_J97dQbKHnK" key="shape_J97dQbKHnK" transform="translate(335.22180175781,170.00000670660575) rotate(0,66.5,66.5) scale(1,1)" style="cursor:move;display:inline;opacity:1;" filter="">
            <g style="display:inline"><rect fill="rgba(0,0,0,0)" width="153" height="152.99998658678848" x="-10" y="-10"></rect><svg version="1.1" id="图层_1" xmlns="http://www.w3.org/2000/svg" xmlns:xlink="http://www.w3.org/1999/xlink" x="0px" y="0px" width="133" height="132.99998658678848" viewBox="24.300003051757812 24.400001525878906 151.3000030517578 151.29998779296875" style="enable-background:new 0 0 200 200;" xml:space="preserve" preserveAspectRatio="none" data-parent="shape_J97dQbKHnK">
<style type="text/css">
	.st0{fill:#FA4B01;}
</style>
<g>
	<path class="st0" d="M100,175.7c-41.7,0-75.7-33.9-75.7-75.7c0-1,0-2,0.1-3c0.1-1.3,1.4-1.6,3-1.9c1.2-0.2,2.9-0.5,5.1-0.8
		c3.7-0.5,8.8-1.2,15.2-2c1.4-0.2,2.7-0.3,4.1-0.5l-25.4-0.9c-0.4,0-0.8-0.2-1-0.5c-0.3-0.3-0.4-0.7-0.3-1.1c0.5-3.3,1.1-6.5,2-9.6
		c0.2-0.6,0.7-1,1.2-1l13.9-0.8l-12.1-2.6c-0.4-0.1-0.7-0.3-0.9-0.7s-0.2-0.8-0.1-1.1c5.4-14.3,14.8-26.5,27.3-35.3
		c12.8-9,27.8-13.8,43.5-13.8c41.7,0,75.7,33.9,75.7,75.7c0,7.8-1.2,15.6-3.5,23c-0.2,0.5-0.6,0.9-1.1,0.9l-14.6,2.1l12.5,0.7
		c0.4,0,0.8,0.3,1.1,0.6c0.2,0.4,0.3,0.8,0.1,1.3c-0.9,2.3-2,4.5-3.1,6.7c-0.2,0.4-0.7,0.7-1.2,0.7l-23.6,0.9l19.9,2.9
		c0.5,0.1,0.9,0.4,1.1,0.8c0.2,0.4,0.2,0.9-0.1,1.3C148.9,163.1,125.4,175.7,100,175.7z M27.1,98c0,0.7,0,1.4,0,2
		c0,40.2,32.7,72.9,72.9,72.9c23.7,0,45.8-11.4,59.4-30.7l-32.8-4.7c-0.7-0.1-1.2-0.7-1.2-1.4c0-0.7,0.6-1.3,1.3-1.3l38.1-1.4
		c0.7-1.3,1.3-2.6,1.9-4l-24.3-1.4c-0.7,0-1.3-0.6-1.3-1.3c0-0.7,0.5-1.3,1.2-1.4l27.4-3.9c2.1-6.9,3.2-14,3.2-21.3
		c0-40.2-32.7-72.9-72.9-72.9c-29.7,0-56.7,18.3-67.7,45.8l20.5,4.3c0.7,0.1,1.1,0.8,1.1,1.5c-0.1,0.7-0.6,1.2-1.3,1.3l-23.1,1.4
		c-0.6,2.2-1.1,4.5-1.5,6.8L70,89.6c0.7,0,1.3,0.6,1.3,1.3c0,0.7-0.5,1.3-1.2,1.4C55.3,94,31.6,96.9,27.1,98z"></path>
	<path class="st0" d="M135.8,164.8c-2.4-7.6-18.2-36.5-18.4-40.1c-0.2-3.5-2.3-11.7-2.7-12.9c-0.4-1.2-10-7.5-10-7.5s0.6-1,1.9-2.5
		c1.2-1.5,4.6,1.7,4.6,1.7s2.4,2.4,3.3-0.6c0.3-1.1,0.5-1.9,1-2.8c0.1-0.3,0.3-1,0.6-1.6c0.2-0.3,1-0.4,1.2-0.7c1.6-2.1,2.6-3,2.6-3
		s2.5,2.9,2.7-1.5c0.2-4.4,0.2-4.4,0.2-4.4l36.6,11.8l-19.4-40.8l-40-16.1L50.9,63.6l42.2,14.9l-11,14.1c0,0-3.8-2.1-7.7-5.9
		c0.2,4.1-0.8,8.3-7.1,21.2c-9.2,18.3-9.6,36.6-9.5,42.9c0.1,4.1,3.8,8.6,7.4,15c10.3,5.5,22.1,8.6,34.6,8.6c13,0,25.3-3.4,35.9-9.2
		C135.9,164.9,135.9,164.8,135.8,164.8z"></path>
</g>
</svg></g>
        </g><g id="shape_HMUyFAB88C" ref="shape_HMUyFAB88C" key="shape_HMUyFAB88C" transform="translate(262.35292269654,365.30884985352) rotate(0,150.4802,43.074289357351) scale(1,1)" style="cursor:move;display:inline;opacity:1;" filter="">
            <g style="display:inline"><svg xmlns="http://www.w3.org/2000/svg" version="1.1" xmlns:xlink="http://www.w3.org/1999/xlink" overflow="hidden" style="top:0; left: 0" width="300.9604" height="86.148578714702" viewBox="0 0 295.9604 93.32896435" preserveAspectRatio="none" data-parent="shape_HMUyFAB88C"><rect fill="rgba(0,0,0,0)" width="300.9604" height="83.0493429"></rect> <rect opacity="0"></rect><g transform="translate(0 0)" data-width="290.9604"><path fill="rgb(25, 25, 25)" d="M43.87-12.25L43.87 3.50Q43.87 5.87 42.21 7.50Q40.56 9.12 38.24 9.12L38.24 9.12L32.37 9.12L32.37 4.25L38.24 4.25Q38.93 4.25 38.93 3.50L38.93 3.50L38.93-12.25L23.81-12.25L23.81-16.62L30.25-28.87L23.50-28.87L23.50-33.74L32.87-33.74L36.12-39.93L40.43-37.68L38.37-33.74L58.18-33.74L58.18-28.87L35.81-28.87L29.62-17.12L38.93-17.12L38.93-25.06L43.87-25.06L43.87-17.12L57.74-17.12L57.74-12.25L43.87-12.25ZM25.06 8.75L21.06 5.87Q23.06 3.06 24.56 0.16Q26.06-2.75 27.06-5.16Q28.06-7.56 28.56-9.09Q29.06-10.62 29.06-10.69L29.06-10.69L33.81-9.25Q33.74-9.12 33.18-7.44Q32.62-5.75 31.56-3.19Q30.50-0.62 28.87 2.53Q27.25 5.69 25.06 8.75L25.06 8.75ZM59.24 6.87L54.62 8.62L48.05-9.12L52.68-10.81L59.24 6.87ZM3.81 8.94L3.81-37.87L22.18-37.87L22.18-30.06L17.81-20.18Q18.37-19.25 19.12-17.65Q19.87-16.06 20.56-13.72Q21.25-11.37 21.72-8.31Q22.18-5.25 22.18-1.37L22.18-1.37L22.18 1.12L10.12 1.12L10.12-3.81L17.18-3.81Q17.00-7.62 16.34-10.34Q15.69-13.06 15.00-14.84Q14.31-16.62 13.72-17.47Q13.12-18.31 13.12-18.31L13.12-18.31L12.12-19.50L17.25-31.12L17.25-32.93L8.69-32.93L8.69 8.94L3.81 8.94Z" transform="translate(5 41.7433868)" data-glyph-w="62.4901"></path><path fill="rgb(25, 25, 25)" d="M7.81-39.31L16.37-31.12L13.00-27.56L4.44-35.74L7.81-39.31ZM4.44-22.62L7.81-26.18L16.37-18.00L13.00-14.44L4.44-22.62ZM3.87 6.94L12.37-10.50L16.75-8.31L8.31 9.06L3.87 6.94ZM53.43-37.81L53.43-39.12L58.37-39.12L58.37 3.12Q58.37 5.50 56.74 7.12Q55.12 8.75 52.74 8.75L52.74 8.75L49.80 8.75L49.80 3.87L52.74 3.87Q53.05 3.87 53.24 3.66Q53.43 3.44 53.43 3.12L53.43 3.12L53.43-7.44L45.24-7.44Q44.87-3.94 44.37-1.00Q43.87 1.94 43.40 4.09Q42.93 6.25 42.56 7.50Q42.18 8.75 42.18 8.87L42.18 8.87L39.81 8.12L37.49 7.37Q37.49 7.31 38.03 5.44Q38.56 3.56 39.15 0.34Q39.74-2.87 40.27-7.12Q40.81-11.37 40.81-16.18L40.81-16.18L40.81-37.81L53.43-37.81ZM53.43-32.87L45.68-32.87L45.68-24.81L53.43-24.81L53.43-32.87ZM45.62-12.37L53.43-12.37L53.43-19.87L45.68-19.87L45.68-16.18Q45.68-15.25 45.68-14.28Q45.68-13.31 45.62-12.37L45.62-12.37ZM32.37-18.06L32.37-19.18L37.24-19.18L37.24 2.12Q37.24 4.44 35.62 6.09Q33.99 7.75 31.62 7.75L31.62 7.75L18.18 7.75L18.18-18.06L25.12-18.06L25.12-26.18L17.43-26.18L17.43-31.06L25.12-31.06L25.12-38.87L30.06-38.87L30.06-31.06L37.74-31.06L37.74-26.18L30.06-26.18L30.06-18.06L32.37-18.06ZM32.37 2.12L32.37-13.19L23.06-13.19L23.06 2.81L31.62 2.81Q31.93 2.81 32.15 2.62Q32.37 2.44 32.37 2.12L32.37 2.12Z" transform="translate(76.4901 41.7433868)" data-glyph-w="62.4901"></path><path fill="rgb(25, 25, 25)" d="M50.87-36.87L50.87-37.99L55.74-37.99L55.74 2.00Q55.74 4.37 54.12 6.00Q52.49 7.62 50.12 7.62L50.12 7.62L18.68 7.62L18.68-36.87L50.87-36.87ZM50.87-31.99L23.62-31.99L23.62-18.62L50.87-18.62L50.87-31.99ZM23.62 2.69L50.12 2.69Q50.87 2.69 50.87 2.00L50.87 2.00L50.87-13.69L23.62-13.69L23.62 2.69ZM6.19 8.31L6.19-38.49L11.12-38.49L11.12 8.31L6.19 8.31Z" transform="translate(147.9802 41.7433868)" data-glyph-w="62.4901"></path><path fill="rgb(25, 25, 25)" d="M20.31 4.12L27.93 4.12Q28.68 4.12 28.68 3.44L28.68 3.44L28.68 1.81L7.44 1.81L7.44-3.12L28.68-3.12L28.68-5.12L3.87-5.12L3.87-10.00L28.68-10.00L28.68-11.94L7.44-11.94L7.44-16.81L28.68-16.81L28.68-18.62L9.75-18.62L9.75-30.43L28.68-30.43L28.68-32.12L5.31-32.12L5.31-37.06L28.68-37.06L28.68-39.37L33.56-39.37L33.56-37.06L57.05-37.06L57.05-32.12L33.56-32.12L33.56-30.43L46.18-30.43L46.18-31.31L51.12-31.31L51.12-24.25Q51.12-21.87 49.46-20.25Q47.80-18.62 45.49-18.62L45.49-18.62L33.56-18.62L33.56-16.81L49.43-16.81L49.43-17.93L54.30-17.93L54.30-10.00L57.99-10.00L57.99-5.12L54.30-5.12L54.30-3.81Q54.30-1.44 52.68 0.19Q51.05 1.81 48.68 1.81L48.68 1.81L33.56 1.81L33.56 3.44Q33.56 5.81 31.93 7.44Q30.31 9.06 27.93 9.06L27.93 9.06L20.31 9.06L20.31 4.12ZM46.18-25.50L33.56-25.50L33.56-23.50L45.49-23.50Q45.81-23.50 45.99-23.71Q46.18-23.93 46.18-24.25L46.18-24.25L46.18-25.50ZM14.69-23.50L28.68-23.50L28.68-25.50L14.69-25.50L14.69-23.50ZM33.56-11.94L33.56-10.00L49.43-10.00L49.43-11.94L33.56-11.94ZM33.56-5.12L33.56-3.12L48.68-3.12Q49.43-3.12 49.43-3.81L49.43-3.81L49.43-5.12L33.56-5.12Z" transform="translate(219.4703 41.7433868)" data-glyph-w="62.4901"></path></g></svg></g>
        </g><g id="shape_s1dWrBUT21" ref="shape_s1dWrBUT21" key="shape_s1dWrBUT21" transform="translate(182.42496545410003,427.00296463343) rotate(0,80.1787109375,24.578561290511) scale(1,1)" style="cursor:move;display:inline;opacity:1;" filter="">
            <g style="display:inline"><svg xmlns="http://www.w3.org/2000/svg" version="1.1" xmlns:xlink="http://www.w3.org/1999/xlink" overflow="hidden" style="top:0; left: 0" width="450.593703125" height="49.157122581022" viewBox="0 0 445.593703125 52.0830078125" preserveAspectRatio="none" data-parent="shape_s1dWrBUT21"><rect fill="rgba(0,0,0,0)" width="450.593703125" height="47.388671875"></rect> <rect opacity="0"></rect><g transform="translate(0 0)" data-width="440.593703125"><path fill="rgb(25, 25, 25)" d="M17.07-20.48Q17.07-22.12 16.48-22.93Q15.88-23.75 15.17-24.19Q14.45-24.62 13.60-24.85Q12.75-25.09 11.89-25.09L11.89-25.09Q10.48-25.09 9.43-24.76Q8.37-24.44 7.67-23.88Q6.98-23.32 6.62-22.58Q6.27-21.84 6.27-21.02L6.27-21.02Q6.27-19.80 6.71-19.05Q7.14-18.29 7.81-17.84Q8.48-17.39 9.29-17.13Q10.09-16.87 10.84-16.61L10.84-16.61L14.58-15.38Q16.27-14.84 17.56-14.16Q18.85-13.47 19.72-12.53Q20.60-11.60 21.05-10.37Q21.50-9.15 21.50-7.53L21.50-7.53Q21.50-5.79 20.79-4.30Q20.08-2.82 18.80-1.73Q17.52-0.63 15.74-0.01Q13.97 0.61 11.86 0.61L11.86 0.61Q9.69 0.61 8.15 0.12Q6.61-0.37 5.56-1.20Q4.51-2.02 3.88-3.08Q3.25-4.14 2.89-5.25L2.89-5.25L1.48-5.25L1.48-8.44L6.16-8.44Q6.16-6.38 6.60-5.53Q7.03-4.68 7.81-4.11Q8.59-3.54 9.67-3.26Q10.74-2.97 12.04-2.97L12.04-2.97Q13.30-2.97 14.31-3.27Q15.33-3.56 16.04-4.13Q16.75-4.69 17.14-5.50Q17.52-6.31 17.52-7.33L17.52-7.33Q17.52-8.46 17.04-9.25Q16.57-10.04 15.83-10.59Q15.08-11.15 14.20-11.50Q13.32-11.86 12.51-12.12L12.51-12.12L8.44-13.27Q7.11-13.67 6.00-14.31Q4.90-14.94 4.11-15.85Q3.32-16.75 2.89-17.97Q2.47-19.19 2.47-20.78L2.47-20.78Q2.47-22.40 3.10-23.81Q3.73-25.22 4.95-26.27Q6.18-27.33 7.95-27.93Q9.72-28.54 12.00-28.54L12.00-28.54Q13.51-28.54 14.78-28.18Q16.05-27.83 17.08-27.19Q18.11-26.55 18.90-25.65Q19.69-24.75 20.22-23.68L20.22-23.68L21.62-23.68L21.62-20.48L17.07-20.48Z" transform="translate(5 36.515625)" data-glyph-w="22.451171875"></path><path fill="rgb(25, 25, 25)" d="M8.41 0L8.41-3.19L10.98-3.19L10.98-25.09L4.56-25.09L4.56-20.71L0.76-20.71L0.76-28.13L25.85-28.13L25.85-20.71L22.04-20.71L22.04-25.09L14.62-25.09L14.62-3.19L17.52-3.19L17.52 0L8.41 0Z" transform="translate(27.451171875 36.515625)" data-glyph-w="26.607421875"></path><path fill="rgb(25, 25, 25)" d="M14.83 0.56L14.83 0.56Q11.91 0.56 9.50-0.53Q7.09-1.61 5.20-3.62Q3.30-5.62 2.32-8.37Q1.34-11.11 1.34-14.06L1.34-14.06Q1.34-17.11 2.33-19.78Q3.32-22.45 5.11-24.43Q6.90-26.40 9.38-27.54Q11.86-28.69 14.83-28.69L14.83-28.69Q17.81-28.69 20.30-27.54Q22.79-26.40 24.57-24.43Q26.35-22.45 27.33-19.78Q28.31-17.11 28.31-14.06L28.31-14.06Q28.31-11.02 27.32-8.36Q26.33-5.70 24.54-3.71Q22.75-1.73 20.27-0.58Q17.79 0.56 14.83 0.56ZM14.83-2.89L14.83-2.89Q17.03-2.89 18.82-3.80Q20.61-4.71 21.88-6.24Q23.14-7.77 23.82-9.80Q24.51-11.82 24.51-14.06L24.51-14.06Q24.51-16.37 23.76-18.51Q23.01-20.65 21.66-22.14Q20.32-23.62 18.54-24.43Q16.75-25.23 14.83-25.23L14.83-25.23Q12.62-25.23 10.82-24.33Q9.02-23.42 7.76-21.89Q6.49-20.35 5.81-18.32Q5.12-16.29 5.12-14.06L5.12-14.06Q5.12-11.47 5.88-9.44Q6.64-7.40 7.90-6.06Q9.15-4.71 10.88-3.80Q12.62-2.89 14.83-2.89Z" transform="translate(54.05859375 36.515625)" data-glyph-w="29.6318359375"></path><path fill="rgb(25, 25, 25)" d="M2.65-24.92L2.65-28.13L14.36-28.13Q16.24-28.13 17.82-27.64Q19.41-27.15 20.57-26.19Q21.73-25.23 22.38-23.81Q23.03-22.38 23.03-20.52L23.03-20.52Q23.03-19.46 22.65-18.43Q22.27-17.40 21.59-16.52Q20.91-15.64 19.98-14.96Q19.06-14.27 17.96-13.90L17.96-13.90Q18.42-13.69 18.90-13.31Q19.37-12.93 19.79-12.39Q20.21-11.84 20.55-11.14Q20.89-10.45 21.10-9.65L21.10-9.65L22.66-3.53L25.09-3.53L25.12 0L19.65 0L17.55-8.55Q16.98-10.85 15.80-11.94Q14.62-13.03 12.58-13.03L12.58-13.03L8.96-13.03L8.96-3.19L11.78-3.19L11.78 0L2.65 0L2.65-3.19L5.33-3.19L5.33-24.92L2.65-24.92ZM13.92-24.92L8.96-24.92L8.96-16.07L14.36-16.07Q15.42-16.07 16.30-16.35Q17.18-16.63 17.82-17.18Q18.46-17.74 18.82-18.56Q19.19-19.39 19.19-20.48L19.19-20.48Q19.19-22.58 17.92-23.75Q16.66-24.92 13.92-24.92L13.92-24.92Z" transform="translate(83.6904296875 36.515625)" data-glyph-w="27.052734375"></path><path fill="rgb(25, 25, 25)" d="M0.95-24.92L0.95-28.13L10.08-28.13L10.08-24.92L7.40-24.92L12.69-15.88L18.35-24.92L15.42-24.92L15.42-28.13L24.55-28.13L24.55-24.92L22.15-24.92L14.25-12.93L14.25-3.19L17.14-3.19L17.14 0L8.02 0L8.02-3.19L10.59-3.19L10.59-13.03L3.14-24.92L0.95-24.92Z" transform="translate(110.7431640625 36.515625)" data-glyph-w="25.123046875"></path><path fill="rgb(25, 25, 25)" d="" transform="translate(135.8662109375 36.515625)" data-glyph-w="15.123999999999999"></path><path fill="rgb(25, 25, 25)" d="M14.83 0.56L14.83 0.56Q11.91 0.56 9.50-0.53Q7.09-1.61 5.20-3.62Q3.30-5.62 2.32-8.37Q1.34-11.11 1.34-14.06L1.34-14.06Q1.34-17.11 2.33-19.78Q3.32-22.45 5.11-24.43Q6.90-26.40 9.38-27.54Q11.86-28.69 14.83-28.69L14.83-28.69Q17.81-28.69 20.30-27.54Q22.79-26.40 24.57-24.43Q26.35-22.45 27.33-19.78Q28.31-17.11 28.31-14.06L28.31-14.06Q28.31-11.02 27.32-8.36Q26.33-5.70 24.54-3.71Q22.75-1.73 20.27-0.58Q17.79 0.56 14.83 0.56ZM14.83-2.89L14.83-2.89Q17.03-2.89 18.82-3.80Q20.61-4.71 21.88-6.24Q23.14-7.77 23.82-9.80Q24.51-11.82 24.51-14.06L24.51-14.06Q24.51-16.37 23.76-18.51Q23.01-20.65 21.66-22.14Q20.32-23.62 18.54-24.43Q16.75-25.23 14.83-25.23L14.83-25.23Q12.62-25.23 10.82-24.33Q9.02-23.42 7.76-21.89Q6.49-20.35 5.81-18.32Q5.12-16.29 5.12-14.06L5.12-14.06Q5.12-11.47 5.88-9.44Q6.64-7.40 7.90-6.06Q9.15-4.71 10.88-3.80Q12.62-2.89 14.83-2.89Z" transform="translate(150.9902109375 36.515625)" data-glyph-w="29.6318359375"></path><path fill="rgb(25, 25, 25)" d="M2.65-24.92L2.65-28.13L22.80-28.13L22.80-20.17L19-20.17L19-24.92L8.96-24.92L8.96-15.88L18.63-15.88L18.63-12.77L8.96-12.77L8.96-3.19L11.78-3.19L11.78 0L2.65 0L2.65-3.19L5.33-3.19L5.33-24.92L2.65-24.92Z" transform="translate(180.622046875 36.515625)" data-glyph-w="23.0634765625"></path><path fill="rgb(25, 25, 25)" d="" transform="translate(203.6855234375 36.515625)" data-glyph-w="15.123999999999999"></path><path fill="rgb(25, 25, 25)" d="M26.61-20.71L22.62-20.71Q21.38-22.82 19.32-24.03Q17.27-25.23 14.75-25.23L14.75-25.23Q12.60-25.23 10.82-24.33Q9.04-23.42 7.77-21.89Q6.49-20.35 5.79-18.34Q5.08-16.33 5.08-14.10L5.08-14.10Q5.08-11.47 5.86-9.44Q6.64-7.40 7.90-6.06Q9.15-4.71 10.87-3.81Q12.60-2.91 14.75-2.91L14.75-2.91Q17.68-2.91 19.85-4.33Q22.02-5.75 23.56-9.00L23.56-9.00L26.83-7.46Q26.13-5.46 24.44-3.59Q22.75-1.73 20.27-0.58Q17.79 0.56 14.79 0.56L14.79 0.56Q11.91 0.56 9.50-0.53Q7.09-1.61 5.20-3.62Q3.32-5.62 2.33-8.37Q1.34-11.11 1.34-14.10L1.34-14.10Q1.34-17.11 2.33-19.78Q3.32-22.45 5.11-24.43Q6.90-26.40 9.38-27.54Q11.86-28.69 14.75-28.69L14.75-28.69Q17.33-28.69 19.20-27.95Q21.08-27.22 22.39-26.21Q23.69-25.20 24.64-24.01L24.64-24.01L26.61-24.01L26.61-20.71Z" transform="translate(218.8095234375 36.515625)" data-glyph-w="27.9990234375"></path><path fill="rgb(25, 25, 25)" d="M22.41-24.94L22.41-28.13L31.54-28.13L31.54-24.94L28.87-24.94L28.87-3.19L31.54-3.19L31.54 0L22.41 0L22.41-3.19L25.23-3.19L25.23-13.30L8.96-13.30L8.96-3.19L11.78-3.19L11.78 0L2.65 0L2.65-3.19L5.33-3.19L5.33-24.94L2.65-24.94L2.65-28.13L11.78-28.13L11.78-24.94L8.96-24.94L8.96-16.42L25.23-16.42L25.23-24.94L22.41-24.94Z" transform="translate(246.808546875 36.515625)" data-glyph-w="34.1962890625"></path><path fill="rgb(25, 25, 25)" d="M2.65-24.92L2.65-28.13L22.80-28.13L22.80-20.17L19-20.17L19-24.92L8.96-24.92L8.96-15.92L17.40-15.92L17.40-12.73L8.96-12.73L8.96-3.19L19-3.19L19-7.94L22.80-7.94L22.80 0L2.65 0L2.65-3.19L5.33-3.19L5.33-24.92L2.65-24.92Z" transform="translate(281.0048359375 36.515625)" data-glyph-w="23.861328125"></path><path fill="rgb(25, 25, 25)" d="M20.06-24.92L20.06-28.13L29.19-28.13L29.19-24.92L26.79-24.92L26.79 0L22.04 0L8.96-23.32L8.96-3.19L11.86-3.19L11.86 0L2.73 0L2.73-3.19L5.33-3.19L5.33-24.92L2.65-24.92L2.65-28.17L10.22-28.17L23.06-5.07L23.21-5.96L23.21-24.92L20.06-24.92Z" transform="translate(304.8661640625 36.515625)" data-glyph-w="30.1328125"></path><path fill="rgb(25, 25, 25)" d="M2.65-24.92L2.65-28.13L11.78-28.13L11.78-24.92L8.96-24.92L8.96-3.19L18.67-3.19Q18.96-3.19 19.26-3.33Q19.56-3.47 19.80-3.69Q20.04-3.92 20.19-4.20Q20.34-4.49 20.34-4.79L20.34-4.79L20.34-8.33L23.86-8.33L23.86 0L2.65 0L2.65-3.19L5.33-3.19L5.33-24.92L2.65-24.92Z" transform="translate(334.9989765625 36.515625)" data-glyph-w="24.046875"></path><path fill="rgb(25, 25, 25)" d="M19.30 0L19.30-3.19L21.63-3.19L19.41-9.57L8.59-9.57L6.42-3.19L9.31-3.19L9.31 0L0.19 0L0.19-3.19L2.63-3.19L11.39-28.13L16.87-28.13L25.61-3.19L28.43-3.19L28.43 0L19.30 0ZM13.95-25.23L9.65-12.65L18.33-12.65L13.95-25.23Z" transform="translate(359.0458515625 36.515625)" data-glyph-w="28.611328125"></path><path fill="rgb(25, 25, 25)" d="M9.00-14.36L21.28-24.92L21.28-28.13L27.74-28.13L27.74-24.92L25.53-24.92L13.21-14.55L24.73-3.19L27.74-3.19L27.74 0L20.17 0L20.17-3.19L9.00-14.36ZM2.69-24.92L2.69-28.13L11.82-28.13L11.82-24.92L8.96-24.92L8.96-3.19L11.78-3.19L11.78 0L2.65 0L2.65-3.19L5.33-3.19L5.33-24.92L2.69-24.92Z" transform="translate(387.6571796875 36.515625)" data-glyph-w="29.0751953125"></path><path fill="rgb(25, 25, 25)" d="M2.65-24.92L2.65-28.13L22.80-28.13L22.80-20.17L19-20.17L19-24.92L8.96-24.92L8.96-15.92L17.40-15.92L17.40-12.73L8.96-12.73L8.96-3.19L19-3.19L19-7.94L22.80-7.94L22.80 0L2.65 0L2.65-3.19L5.33-3.19L5.33-24.92L2.65-24.92Z" transform="translate(416.732375 36.515625)" data-glyph-w="23.861328125"></path></g></svg></g>
        </g></svg>